<?xml version="1.0" encoding="utf-8"?>
<svg version="1.1"
	 id="svg3771" xmlns:dc="http://purl.org/dc/elements/1.1/" xmlns:cc="http://creativecommons.org/ns#" xmlns:rdf="http://www.w3.org/1999/02/22-rdf-syntax-ns#" xmlns:svg="http://www.w3.org/2000/svg"
	 xmlns="http://www.w3.org/2000/svg" xmlns:xlink="http://www.w3.org/1999/xlink" x="0px" y="0px" viewBox="0 0 300 300"
	 style="enable-background:new 0 0 300 300;" xml:space="preserve">
<style type="text/css">
	.st0{fill:#BEBEBE;}
</style>
<path id="path2987" class="st0" d="M290.4,205.6l-49.6-27.1c14-53.1-9.3-111.2-59.6-138.6C121.9,7.5,47.3,29.4,14.9,88.7
	S4.5,222.5,63.7,254.8c50.3,27.5,111.7,15.7,148.9-24.8l49.6,27.1c9,4.9,20.2,1.6,25.1-7.4l10.4-19
	C302.6,221.8,299.3,210.5,290.4,205.6z M77.5,229.7C31.9,204.8,15.2,148,40.1,102.4C65,56.8,121.8,40.1,167.4,65
	s62.3,81.7,37.4,127.3C179.9,237.9,123.1,254.6,77.5,229.7z"/>
</svg>
